<svg width="16" height="16" viewBox="0 0 16 16" fill="none" xmlns="http://www.w3.org/2000/svg">
<rect width="16" height="16" rx="2" fill="#121212"/>
<path d="M7.84 12.12C7.488 12.12 7.136 12.092 6.784 12.036C6.432 11.988 6.1 11.912 5.788 11.808C5.476 11.696 5.196 11.56 4.948 11.4C4.804 11.304 4.704 11.188 4.648 11.052C4.592 10.916 4.572 10.784 4.588 10.656C4.612 10.52 4.664 10.404 4.744 10.308C4.832 10.204 4.94 10.14 5.068 10.116C5.196 10.092 5.336 10.128 5.488 10.224C5.84 10.432 6.212 10.584 6.604 10.68C6.996 10.776 7.408 10.824 7.84 10.824C8.472 10.824 8.932 10.72 9.22 10.512C9.508 10.296 9.652 10.02 9.652 9.684C9.652 9.404 9.548 9.184 9.34 9.024C9.14 8.864 8.792 8.732 8.296 8.628L6.976 8.352C6.216 8.192 5.648 7.924 5.272 7.548C4.904 7.164 4.72 6.66 4.72 6.036C4.72 5.644 4.8 5.288 4.96 4.968C5.12 4.648 5.344 4.372 5.632 4.14C5.928 3.908 6.276 3.732 6.676 3.612C7.084 3.484 7.532 3.42 8.02 3.42C8.5 3.42 8.956 3.48 9.388 3.6C9.82 3.72 10.208 3.896 10.552 4.128C10.68 4.216 10.764 4.324 10.804 4.452C10.852 4.58 10.864 4.708 10.84 4.836C10.816 4.956 10.76 5.06 10.672 5.148C10.584 5.236 10.472 5.288 10.336 5.304C10.208 5.32 10.06 5.28 9.892 5.184C9.596 5.016 9.296 4.896 8.992 4.824C8.688 4.752 8.36 4.716 8.008 4.716C7.64 4.716 7.324 4.768 7.06 4.872C6.796 4.976 6.592 5.124 6.448 5.316C6.312 5.5 6.244 5.72 6.244 5.976C6.244 6.264 6.34 6.496 6.532 6.672C6.724 6.84 7.052 6.972 7.516 7.068L8.824 7.344C9.616 7.512 10.204 7.776 10.588 8.136C10.98 8.496 11.176 8.976 11.176 9.576C11.176 9.96 11.096 10.308 10.936 10.62C10.784 10.932 10.56 11.2 10.264 11.424C9.976 11.648 9.628 11.82 9.22 11.94C8.812 12.06 8.352 12.12 7.84 12.12Z" fill="#BB86FC"/>
</svg>
