<svg width="48" height="48" viewBox="0 0 100 100" fill="none" xmlns="http://www.w3.org/2000/svg">
<rect width="100" height="100" rx="16" fill="#F5F5DC"/>
<path d="M48 28C48 26.8954 47.1046 26 46 26C44.8954 26 44 26.8954 44 28H48ZM44 28C44 55.3219 30.3484 69.9889 23.977 73.7814L26.023 77.2186C33.6516 72.6777 48 56.6781 48 28H44Z" fill="#708090"/>
<path d="M75.3944 26.7889C76.3824 26.2949 76.7828 25.0935 76.2889 24.1056C75.7949 23.1176 74.5935 22.7172 73.6056 23.2111L75.3944 26.7889ZM45.7729 30.4871C60.1454 32.1296 71.3698 28.8012 75.3944 26.7889L73.6056 23.2111C70.2969 24.8655 59.8546 28.0704 46.2271 26.5129L45.7729 30.4871Z" fill="#708090"/>
<path d="M72.8296 41.6404C73.4594 40.733 73.2343 39.4868 72.3269 38.857C71.4195 38.2272 70.1733 38.4522 69.5435 39.3596L72.8296 41.6404ZM44.012 47.5884C53.6171 47.5309 60.2929 46.6621 64.7677 45.562C67.0039 45.0122 68.7268 44.3959 70.0052 43.772C71.2156 43.1814 72.2469 42.4799 72.8296 41.6404L69.5435 39.3596C69.554 39.3445 69.2762 39.6769 68.2511 40.1772C67.2939 40.6442 65.8547 41.1756 63.8127 41.6776C59.731 42.6811 53.3857 43.5322 43.988 43.5885L44.012 47.5884Z" fill="#708090"/>
</svg>
